<mxfile host="app.diagrams.net" modified="2023-07-06T01:05:25.919Z" agent="Mozilla/5.0 (X11; Linux x86_64) AppleWebKit/537.36 (KHTML, like Gecko) Chrome/114.0.0.0 Safari/537.36" etag="rPddeFei8enSYAHvUBwG" version="21.6.1" type="device" pages="3">
  <diagram name="Page-1" id="MPmvObjzKeXvOLPPdbal">
    <mxGraphModel dx="1418" dy="815" grid="1" gridSize="10" guides="1" tooltips="1" connect="1" arrows="1" fold="1" page="1" pageScale="1" pageWidth="850" pageHeight="1100" math="0" shadow="0">
      <root>
        <mxCell id="0" />
        <mxCell id="1" parent="0" />
        <mxCell id="cJ-ZxG3CTzg3LTMBy9cQ-1" value="AWS Cloud" style="sketch=0;outlineConnect=0;gradientColor=none;html=1;whiteSpace=wrap;fontSize=12;fontStyle=0;shape=mxgraph.aws4.group;grIcon=mxgraph.aws4.group_aws_cloud;strokeColor=#AAB7B8;fillColor=none;verticalAlign=top;align=left;spacingLeft=30;fontColor=#AAB7B8;dashed=0;movable=0;resizable=0;rotatable=0;deletable=0;editable=0;locked=1;connectable=0;" parent="1" vertex="1">
          <mxGeometry y="40" width="800" height="480" as="geometry" />
        </mxCell>
        <mxCell id="cJ-ZxG3CTzg3LTMBy9cQ-2" value="VPC&lt;br&gt;10.0.0.0/16" style="points=[[0,0],[0.25,0],[0.5,0],[0.75,0],[1,0],[1,0.25],[1,0.5],[1,0.75],[1,1],[0.75,1],[0.5,1],[0.25,1],[0,1],[0,0.75],[0,0.5],[0,0.25]];outlineConnect=0;gradientColor=none;html=1;whiteSpace=wrap;fontSize=12;fontStyle=0;container=1;pointerEvents=0;collapsible=0;recursiveResize=0;shape=mxgraph.aws4.group;grIcon=mxgraph.aws4.group_vpc;strokeColor=#248814;fillColor=none;verticalAlign=top;align=left;spacingLeft=30;fontColor=#AAB7B8;dashed=0;movable=0;resizable=0;rotatable=0;deletable=0;editable=0;locked=1;connectable=0;" parent="1" vertex="1">
          <mxGeometry x="80" y="80" width="680" height="400" as="geometry" />
        </mxCell>
        <mxCell id="cJ-ZxG3CTzg3LTMBy9cQ-3" value="Public subnet&lt;br&gt;10.0.0.0/20" style="points=[[0,0],[0.25,0],[0.5,0],[0.75,0],[1,0],[1,0.25],[1,0.5],[1,0.75],[1,1],[0.75,1],[0.5,1],[0.25,1],[0,1],[0,0.75],[0,0.5],[0,0.25]];outlineConnect=0;gradientColor=none;html=1;whiteSpace=wrap;fontSize=12;fontStyle=0;container=1;pointerEvents=0;collapsible=0;recursiveResize=0;shape=mxgraph.aws4.group;grIcon=mxgraph.aws4.group_security_group;grStroke=0;strokeColor=#248814;fillColor=#E9F3E6;verticalAlign=top;align=left;spacingLeft=30;fontColor=#248814;dashed=0;movable=1;resizable=1;rotatable=1;deletable=1;editable=1;locked=0;connectable=1;" parent="1" vertex="1">
          <mxGeometry x="120" y="120" width="400" height="320" as="geometry" />
        </mxCell>
        <mxCell id="vuarE7Lc8VknH5BZANQF-6" value="Security Group" style="fontStyle=0;verticalAlign=top;align=center;spacingTop=-2;fillColor=none;rounded=0;whiteSpace=wrap;html=1;strokeColor=#FF0000;strokeWidth=2;dashed=1;container=1;collapsible=0;expand=0;recursiveResize=0;" vertex="1" parent="cJ-ZxG3CTzg3LTMBy9cQ-3">
          <mxGeometry x="110" y="38" width="200" height="200" as="geometry" />
        </mxCell>
        <mxCell id="cJ-ZxG3CTzg3LTMBy9cQ-10" value="ip server" style="sketch=0;points=[[0,0,0],[0.25,0,0],[0.5,0,0],[0.75,0,0],[1,0,0],[0,1,0],[0.25,1,0],[0.5,1,0],[0.75,1,0],[1,1,0],[0,0.25,0],[0,0.5,0],[0,0.75,0],[1,0.25,0],[1,0.5,0],[1,0.75,0]];outlineConnect=0;fontColor=#232F3E;gradientColor=#F78E04;gradientDirection=north;fillColor=#D05C17;strokeColor=#ffffff;dashed=0;verticalLabelPosition=bottom;verticalAlign=top;align=center;html=1;fontSize=12;fontStyle=0;aspect=fixed;shape=mxgraph.aws4.resourceIcon;resIcon=mxgraph.aws4.ec2;" parent="vuarE7Lc8VknH5BZANQF-6" vertex="1">
          <mxGeometry x="20" y="52" width="50" height="50" as="geometry" />
        </mxCell>
        <mxCell id="vuarE7Lc8VknH5BZANQF-1" style="edgeStyle=orthogonalEdgeStyle;rounded=0;orthogonalLoop=1;jettySize=auto;html=1;" edge="1" parent="1" source="cJ-ZxG3CTzg3LTMBy9cQ-42" target="cJ-ZxG3CTzg3LTMBy9cQ-10">
          <mxGeometry relative="1" as="geometry" />
        </mxCell>
        <mxCell id="cJ-ZxG3CTzg3LTMBy9cQ-42" value="" style="sketch=0;outlineConnect=0;fontColor=#232F3E;gradientColor=none;fillColor=#4D27AA;strokeColor=none;dashed=0;verticalLabelPosition=bottom;verticalAlign=top;align=center;html=1;fontSize=12;fontStyle=0;aspect=fixed;pointerEvents=1;shape=mxgraph.aws4.internet_gateway;" parent="1" vertex="1">
          <mxGeometry x="50" y="241.5" width="60" height="60" as="geometry" />
        </mxCell>
        <mxCell id="cJ-ZxG3CTzg3LTMBy9cQ-59" style="edgeStyle=orthogonalEdgeStyle;rounded=0;orthogonalLoop=1;jettySize=auto;html=1;entryX=0.1;entryY=-0.008;entryDx=0;entryDy=0;entryPerimeter=0;" parent="1" source="cJ-ZxG3CTzg3LTMBy9cQ-55" target="cJ-ZxG3CTzg3LTMBy9cQ-42" edge="1">
          <mxGeometry relative="1" as="geometry">
            <mxPoint x="20" y="266" as="targetPoint" />
          </mxGeometry>
        </mxCell>
        <mxCell id="cJ-ZxG3CTzg3LTMBy9cQ-55" value="Cliente 1" style="outlineConnect=0;dashed=0;verticalLabelPosition=bottom;verticalAlign=top;align=center;html=1;shape=mxgraph.aws3.management_console;fillColor=#d80073;strokeColor=#A50040;fontColor=#000000;" parent="1" vertex="1">
          <mxGeometry x="-120" y="120" width="50" height="49" as="geometry" />
        </mxCell>
        <mxCell id="cJ-ZxG3CTzg3LTMBy9cQ-60" style="edgeStyle=orthogonalEdgeStyle;rounded=0;orthogonalLoop=1;jettySize=auto;html=1;" parent="1" source="cJ-ZxG3CTzg3LTMBy9cQ-56" target="cJ-ZxG3CTzg3LTMBy9cQ-42" edge="1">
          <mxGeometry relative="1" as="geometry">
            <mxPoint x="20" y="266" as="targetPoint" />
          </mxGeometry>
        </mxCell>
        <mxCell id="cJ-ZxG3CTzg3LTMBy9cQ-56" value="Cliente 2" style="outlineConnect=0;dashed=0;verticalLabelPosition=bottom;verticalAlign=top;align=center;html=1;shape=mxgraph.aws3.management_console;fillColor=#60a917;strokeColor=#2D7600;fontColor=#000000;" parent="1" vertex="1">
          <mxGeometry x="-120" y="241.5" width="50" height="49" as="geometry" />
        </mxCell>
        <mxCell id="vuarE7Lc8VknH5BZANQF-12" style="edgeStyle=orthogonalEdgeStyle;rounded=0;orthogonalLoop=1;jettySize=auto;html=1;entryX=0.167;entryY=1.142;entryDx=0;entryDy=0;entryPerimeter=0;" edge="1" parent="1" source="cJ-ZxG3CTzg3LTMBy9cQ-57" target="cJ-ZxG3CTzg3LTMBy9cQ-42">
          <mxGeometry relative="1" as="geometry">
            <mxPoint y="560" as="targetPoint" />
          </mxGeometry>
        </mxCell>
        <mxCell id="cJ-ZxG3CTzg3LTMBy9cQ-57" value="Cliente 3" style="outlineConnect=0;dashed=0;verticalLabelPosition=bottom;verticalAlign=top;align=center;html=1;shape=mxgraph.aws3.management_console;fillColor=#fff2cc;strokeColor=#d6b656;" parent="1" vertex="1">
          <mxGeometry x="-120" y="370" width="50" height="49" as="geometry" />
        </mxCell>
        <mxCell id="vuarE7Lc8VknH5BZANQF-9" style="edgeStyle=orthogonalEdgeStyle;rounded=0;orthogonalLoop=1;jettySize=auto;html=1;entryX=0;entryY=0.5;entryDx=0;entryDy=0;" edge="1" parent="1" source="cJ-ZxG3CTzg3LTMBy9cQ-65" target="cJ-ZxG3CTzg3LTMBy9cQ-81">
          <mxGeometry relative="1" as="geometry" />
        </mxCell>
        <mxCell id="cJ-ZxG3CTzg3LTMBy9cQ-65" value="Outbound" style="outlineConnect=0;dashed=0;verticalLabelPosition=bottom;verticalAlign=top;align=center;html=1;shape=mxgraph.aws3.ami;fillColor=#F58534;gradientColor=none;" parent="1" vertex="1">
          <mxGeometry x="530" y="277" width="60" height="60" as="geometry" />
        </mxCell>
        <mxCell id="cJ-ZxG3CTzg3LTMBy9cQ-86" style="edgeStyle=orthogonalEdgeStyle;rounded=0;orthogonalLoop=1;jettySize=auto;html=1;entryX=0;entryY=0.5;entryDx=0;entryDy=0;fontColor=#000000;" parent="1" source="cJ-ZxG3CTzg3LTMBy9cQ-66" target="cJ-ZxG3CTzg3LTMBy9cQ-82" edge="1">
          <mxGeometry relative="1" as="geometry" />
        </mxCell>
        <mxCell id="cJ-ZxG3CTzg3LTMBy9cQ-66" value="Inbound" style="outlineConnect=0;dashed=0;verticalLabelPosition=bottom;verticalAlign=top;align=center;html=1;shape=mxgraph.aws3.ami;fillColor=#F58534;gradientColor=none;" parent="1" vertex="1">
          <mxGeometry x="530" y="158" width="60" height="60" as="geometry" />
        </mxCell>
        <mxCell id="cJ-ZxG3CTzg3LTMBy9cQ-81" value="&lt;p style=&quot;margin:0px;margin-top:4px;text-align:center;text-decoration:underline;&quot;&gt;&lt;b&gt;Outbound&lt;/b&gt;&lt;/p&gt;&lt;hr&gt;&lt;p style=&quot;margin:0px;margin-left:8px;&quot;&gt;0.0.0.0/0&lt;/p&gt;" style="verticalAlign=top;align=left;overflow=fill;fontSize=12;fontFamily=Helvetica;html=1;fontColor=#000000;fillColor=none;" parent="1" vertex="1">
          <mxGeometry x="618" y="280" width="102" height="60" as="geometry" />
        </mxCell>
        <mxCell id="cJ-ZxG3CTzg3LTMBy9cQ-82" value="&lt;p style=&quot;margin:0px;margin-top:4px;text-align:center;text-decoration:underline;&quot;&gt;&lt;b&gt;Inbound&lt;/b&gt;&lt;/p&gt;&lt;hr&gt;&lt;p style=&quot;margin:0px;margin-left:8px;&quot;&gt;ip 1&amp;nbsp;&lt;span style=&quot;background-color: initial;&quot;&gt;(x.x.x.x/32)&lt;/span&gt;&lt;/p&gt;&lt;p style=&quot;margin:0px;margin-left:8px;&quot;&gt;ip 2 (y.y.y.y/32)&lt;/p&gt;&lt;p style=&quot;margin:0px;margin-left:8px;&quot;&gt;ip 3 (z.z.z.z/32)&lt;/p&gt;" style="verticalAlign=top;align=left;overflow=fill;fontSize=12;fontFamily=Helvetica;html=1;fontColor=#000000;fillColor=none;" parent="1" vertex="1">
          <mxGeometry x="618" y="158" width="102" height="90" as="geometry" />
        </mxCell>
      </root>
    </mxGraphModel>
  </diagram>
  <diagram name="1.0-Infra" id="7IvZgDl8Jhlbx0srYqQg">
    <mxGraphModel dx="1399" dy="757" grid="1" gridSize="10" guides="1" tooltips="1" connect="1" arrows="1" fold="1" page="1" pageScale="1" pageWidth="850" pageHeight="1100" math="0" shadow="0">
      <root>
        <mxCell id="2ttZHsJw80eN9F5FScRG-0" />
        <mxCell id="2ttZHsJw80eN9F5FScRG-1" parent="2ttZHsJw80eN9F5FScRG-0" />
        <mxCell id="2ttZHsJw80eN9F5FScRG-2" value="AWS Cloud" style="sketch=0;outlineConnect=0;gradientColor=none;html=1;whiteSpace=wrap;fontSize=12;fontStyle=0;shape=mxgraph.aws4.group;grIcon=mxgraph.aws4.group_aws_cloud;strokeColor=#AAB7B8;fillColor=none;verticalAlign=top;align=left;spacingLeft=30;fontColor=#AAB7B8;dashed=0;movable=0;resizable=0;rotatable=0;deletable=0;editable=0;locked=1;connectable=0;" parent="2ttZHsJw80eN9F5FScRG-1" vertex="1">
          <mxGeometry x="40" y="40" width="760" height="640" as="geometry" />
        </mxCell>
        <mxCell id="2ttZHsJw80eN9F5FScRG-3" value="VPC&amp;nbsp;actio-vpc-prod&lt;br&gt;(10.0.0.0/8)" style="points=[[0,0],[0.25,0],[0.5,0],[0.75,0],[1,0],[1,0.25],[1,0.5],[1,0.75],[1,1],[0.75,1],[0.5,1],[0.25,1],[0,1],[0,0.75],[0,0.5],[0,0.25]];outlineConnect=0;gradientColor=none;html=1;whiteSpace=wrap;fontSize=12;fontStyle=0;container=1;pointerEvents=0;collapsible=0;recursiveResize=0;shape=mxgraph.aws4.group;grIcon=mxgraph.aws4.group_vpc;strokeColor=#248814;fillColor=none;verticalAlign=top;align=left;spacingLeft=30;fontColor=#AAB7B8;dashed=0;movable=0;resizable=0;rotatable=0;deletable=0;editable=0;locked=1;connectable=0;" parent="2ttZHsJw80eN9F5FScRG-1" vertex="1">
          <mxGeometry x="80" y="80" width="680" height="560" as="geometry" />
        </mxCell>
        <mxCell id="2ttZHsJw80eN9F5FScRG-4" value="Public subnet&amp;nbsp;actio-public-subnet-prod-1a&lt;br&gt;(10.0.0.0/16)" style="points=[[0,0],[0.25,0],[0.5,0],[0.75,0],[1,0],[1,0.25],[1,0.5],[1,0.75],[1,1],[0.75,1],[0.5,1],[0.25,1],[0,1],[0,0.75],[0,0.5],[0,0.25]];outlineConnect=0;gradientColor=none;html=1;whiteSpace=wrap;fontSize=12;fontStyle=0;container=1;pointerEvents=0;collapsible=0;recursiveResize=0;shape=mxgraph.aws4.group;grIcon=mxgraph.aws4.group_security_group;grStroke=0;strokeColor=#248814;fillColor=#E9F3E6;verticalAlign=top;align=left;spacingLeft=30;fontColor=#248814;dashed=0;movable=1;resizable=1;rotatable=1;deletable=1;editable=1;locked=0;connectable=1;" parent="2ttZHsJw80eN9F5FScRG-1" vertex="1">
          <mxGeometry x="120" y="160" width="280" height="160" as="geometry" />
        </mxCell>
        <mxCell id="ZKu_UDfu_RhvIZUCsy_7-0" value="Public subnet&amp;nbsp;actio-public-subnet-prod-1b&lt;br&gt;(10.2.0.0/16)" style="points=[[0,0],[0.25,0],[0.5,0],[0.75,0],[1,0],[1,0.25],[1,0.5],[1,0.75],[1,1],[0.75,1],[0.5,1],[0.25,1],[0,1],[0,0.75],[0,0.5],[0,0.25]];outlineConnect=0;gradientColor=none;html=1;whiteSpace=wrap;fontSize=12;fontStyle=0;container=1;pointerEvents=0;collapsible=0;recursiveResize=0;shape=mxgraph.aws4.group;grIcon=mxgraph.aws4.group_security_group;grStroke=0;strokeColor=#248814;fillColor=#E9F3E6;verticalAlign=top;align=left;spacingLeft=30;fontColor=#248814;dashed=0;movable=1;resizable=1;rotatable=1;deletable=1;editable=1;locked=0;connectable=1;" parent="2ttZHsJw80eN9F5FScRG-1" vertex="1">
          <mxGeometry x="120" y="360" width="280" height="160" as="geometry" />
        </mxCell>
        <mxCell id="ZKu_UDfu_RhvIZUCsy_7-1" value="Private&amp;nbsp;subnet&amp;nbsp;actio-private-subnet-prod-1a&lt;br&gt;(10.1.0.0/16)" style="points=[[0,0],[0.25,0],[0.5,0],[0.75,0],[1,0],[1,0.25],[1,0.5],[1,0.75],[1,1],[0.75,1],[0.5,1],[0.25,1],[0,1],[0,0.75],[0,0.5],[0,0.25]];outlineConnect=0;gradientColor=none;html=1;whiteSpace=wrap;fontSize=12;fontStyle=0;container=1;pointerEvents=0;collapsible=0;recursiveResize=0;shape=mxgraph.aws4.group;grIcon=mxgraph.aws4.group_security_group;grStroke=0;strokeColor=#147EBA;fillColor=#E6F2F8;verticalAlign=top;align=left;spacingLeft=30;fontColor=#147EBA;dashed=0;" parent="2ttZHsJw80eN9F5FScRG-1" vertex="1">
          <mxGeometry x="440" y="160" width="280" height="160" as="geometry" />
        </mxCell>
        <mxCell id="ZKu_UDfu_RhvIZUCsy_7-2" value="Private subnet&amp;nbsp;actio-private-subnet-prod-1b&lt;br&gt;(10.3.0.0/16)" style="points=[[0,0],[0.25,0],[0.5,0],[0.75,0],[1,0],[1,0.25],[1,0.5],[1,0.75],[1,1],[0.75,1],[0.5,1],[0.25,1],[0,1],[0,0.75],[0,0.5],[0,0.25]];outlineConnect=0;gradientColor=none;html=1;whiteSpace=wrap;fontSize=12;fontStyle=0;container=1;pointerEvents=0;collapsible=0;recursiveResize=0;shape=mxgraph.aws4.group;grIcon=mxgraph.aws4.group_security_group;grStroke=0;strokeColor=#147EBA;fillColor=#E6F2F8;verticalAlign=top;align=left;spacingLeft=30;fontColor=#147EBA;dashed=0;" parent="2ttZHsJw80eN9F5FScRG-1" vertex="1">
          <mxGeometry x="440" y="360" width="280" height="160" as="geometry" />
        </mxCell>
        <mxCell id="tFhC4XUiKQREY02isqr3-0" value="Availability zone" style="sketch=0;outlineConnect=0;gradientColor=none;html=1;whiteSpace=wrap;fontSize=12;fontStyle=0;shape=mxgraph.aws4.group;grIcon=mxgraph.aws4.group_availability_zone;strokeColor=#545B64;fillColor=none;verticalAlign=top;align=left;spacingLeft=30;fontColor=#545B64;dashed=1;" parent="2ttZHsJw80eN9F5FScRG-1" vertex="1">
          <mxGeometry x="450" y="120" width="120" height="440" as="geometry" />
        </mxCell>
        <mxCell id="tFhC4XUiKQREY02isqr3-1" value="Availability zone" style="sketch=0;outlineConnect=0;gradientColor=none;html=1;whiteSpace=wrap;fontSize=12;fontStyle=0;shape=mxgraph.aws4.group;grIcon=mxgraph.aws4.group_availability_zone;strokeColor=#545B64;fillColor=none;verticalAlign=top;align=left;spacingLeft=30;fontColor=#545B64;dashed=1;" parent="2ttZHsJw80eN9F5FScRG-1" vertex="1">
          <mxGeometry x="590" y="120" width="120" height="440" as="geometry" />
        </mxCell>
      </root>
    </mxGraphModel>
  </diagram>
  <diagram id="YaCMVyrqk0GHVS177nLx" name="proxy">
    <mxGraphModel dx="1399" dy="757" grid="1" gridSize="10" guides="1" tooltips="1" connect="1" arrows="1" fold="1" page="1" pageScale="1" pageWidth="850" pageHeight="1100" math="0" shadow="0">
      <root>
        <mxCell id="0" />
        <mxCell id="1" parent="0" />
        <mxCell id="NENpZ0McD4LcgtSGKxhG-1" value="" style="group" vertex="1" connectable="0" parent="1">
          <mxGeometry x="80" y="720" width="368" height="270" as="geometry" />
        </mxCell>
        <mxCell id="NENpZ0McD4LcgtSGKxhG-2" value="nginx - proxy reverso" style="aspect=fixed;perimeter=ellipsePerimeter;html=1;align=center;shadow=0;dashed=0;spacingTop=3;image;image=img/lib/active_directory/generic_server.svg;fontColor=#000000;fillColor=none;" vertex="1" parent="NENpZ0McD4LcgtSGKxhG-1">
          <mxGeometry x="173" y="10" width="28.000000000000004" height="50" as="geometry" />
        </mxCell>
        <mxCell id="NENpZ0McD4LcgtSGKxhG-3" style="edgeStyle=orthogonalEdgeStyle;rounded=0;orthogonalLoop=1;jettySize=auto;html=1;fontColor=#000000;" edge="1" parent="NENpZ0McD4LcgtSGKxhG-1" source="NENpZ0McD4LcgtSGKxhG-4" target="NENpZ0McD4LcgtSGKxhG-2">
          <mxGeometry relative="1" as="geometry">
            <Array as="points">
              <mxPoint x="63" y="120" />
              <mxPoint x="188" y="120" />
            </Array>
          </mxGeometry>
        </mxCell>
        <mxCell id="NENpZ0McD4LcgtSGKxhG-4" value="asp.net 1" style="aspect=fixed;perimeter=ellipsePerimeter;html=1;align=center;shadow=0;dashed=0;spacingTop=3;image;image=img/lib/active_directory/generic_server.svg;fontColor=#000000;fillColor=none;" vertex="1" parent="NENpZ0McD4LcgtSGKxhG-1">
          <mxGeometry x="49" y="180" width="28.000000000000004" height="50" as="geometry" />
        </mxCell>
        <mxCell id="NENpZ0McD4LcgtSGKxhG-5" style="edgeStyle=orthogonalEdgeStyle;rounded=0;orthogonalLoop=1;jettySize=auto;html=1;fontColor=#000000;" edge="1" parent="NENpZ0McD4LcgtSGKxhG-1" source="NENpZ0McD4LcgtSGKxhG-6" target="NENpZ0McD4LcgtSGKxhG-2">
          <mxGeometry relative="1" as="geometry">
            <Array as="points">
              <mxPoint x="129" y="120" />
              <mxPoint x="187" y="120" />
            </Array>
          </mxGeometry>
        </mxCell>
        <mxCell id="NENpZ0McD4LcgtSGKxhG-6" value="asp.net 2" style="aspect=fixed;perimeter=ellipsePerimeter;html=1;align=center;shadow=0;dashed=0;spacingTop=3;image;image=img/lib/active_directory/generic_server.svg;fontColor=#000000;fillColor=none;" vertex="1" parent="NENpZ0McD4LcgtSGKxhG-1">
          <mxGeometry x="115" y="180" width="28.000000000000004" height="50" as="geometry" />
        </mxCell>
        <mxCell id="NENpZ0McD4LcgtSGKxhG-7" style="edgeStyle=orthogonalEdgeStyle;rounded=0;orthogonalLoop=1;jettySize=auto;html=1;fontColor=#000000;" edge="1" parent="NENpZ0McD4LcgtSGKxhG-1" source="NENpZ0McD4LcgtSGKxhG-8" target="NENpZ0McD4LcgtSGKxhG-2">
          <mxGeometry relative="1" as="geometry" />
        </mxCell>
        <mxCell id="NENpZ0McD4LcgtSGKxhG-8" value="asp.net 3" style="aspect=fixed;perimeter=ellipsePerimeter;html=1;align=center;shadow=0;dashed=0;spacingTop=3;image;image=img/lib/active_directory/generic_server.svg;fontColor=#000000;fillColor=none;" vertex="1" parent="NENpZ0McD4LcgtSGKxhG-1">
          <mxGeometry x="172" y="180" width="28.000000000000004" height="50" as="geometry" />
        </mxCell>
        <mxCell id="NENpZ0McD4LcgtSGKxhG-9" style="edgeStyle=orthogonalEdgeStyle;rounded=0;orthogonalLoop=1;jettySize=auto;html=1;fontColor=#000000;" edge="1" parent="NENpZ0McD4LcgtSGKxhG-1" source="NENpZ0McD4LcgtSGKxhG-10" target="NENpZ0McD4LcgtSGKxhG-2">
          <mxGeometry relative="1" as="geometry">
            <Array as="points">
              <mxPoint x="247" y="120" />
              <mxPoint x="187" y="120" />
            </Array>
          </mxGeometry>
        </mxCell>
        <mxCell id="NENpZ0McD4LcgtSGKxhG-10" value="asp.net ..." style="aspect=fixed;perimeter=ellipsePerimeter;html=1;align=center;shadow=0;dashed=0;spacingTop=3;image;image=img/lib/active_directory/generic_server.svg;fontColor=#000000;fillColor=none;" vertex="1" parent="NENpZ0McD4LcgtSGKxhG-1">
          <mxGeometry x="233" y="180" width="28.000000000000004" height="50" as="geometry" />
        </mxCell>
        <mxCell id="NENpZ0McD4LcgtSGKxhG-11" style="edgeStyle=orthogonalEdgeStyle;rounded=0;orthogonalLoop=1;jettySize=auto;html=1;fontColor=#000000;" edge="1" parent="NENpZ0McD4LcgtSGKxhG-1" source="NENpZ0McD4LcgtSGKxhG-13" target="NENpZ0McD4LcgtSGKxhG-2">
          <mxGeometry relative="1" as="geometry">
            <Array as="points">
              <mxPoint x="311" y="120" />
              <mxPoint x="187" y="120" />
            </Array>
          </mxGeometry>
        </mxCell>
        <mxCell id="NENpZ0McD4LcgtSGKxhG-12" value="EC2" style="swimlane;horizontal=0;whiteSpace=wrap;html=1;fillColor=#ffe6cc;strokeColor=#d79b00;movable=0;resizable=0;rotatable=0;deletable=0;editable=0;locked=1;connectable=0;" vertex="1" parent="NENpZ0McD4LcgtSGKxhG-1">
          <mxGeometry width="368" height="270" as="geometry" />
        </mxCell>
        <mxCell id="NENpZ0McD4LcgtSGKxhG-13" value="asp.net N" style="aspect=fixed;perimeter=ellipsePerimeter;html=1;align=center;shadow=0;dashed=0;spacingTop=3;image;image=img/lib/active_directory/generic_server.svg;fontColor=#000000;fillColor=none;" vertex="1" parent="NENpZ0McD4LcgtSGKxhG-1">
          <mxGeometry x="297" y="180" width="28.000000000000004" height="50" as="geometry" />
        </mxCell>
      </root>
    </mxGraphModel>
  </diagram>
</mxfile>
